<svg xmlns="http://www.w3.org/2000/svg" xmlns:xlink="http://www.w3.org/1999/xlink" width="500" zoomAndPan="magnify" viewBox="0 0 375 374.999991" height="500" preserveAspectRatio="xMidYMid meet" version="1.0"><defs><g/><clipPath id="816b774aee"><path d="M 52.488281 221.457031 L 91.488281 221.457031 L 91.488281 222.957031 L 52.488281 222.957031 Z M 52.488281 221.457031 " clip-rule="nonzero"/></clipPath><clipPath id="a4c589173d"><path d="M 283.886719 221.457031 L 322.886719 221.457031 L 322.886719 222.957031 L 283.886719 222.957031 Z M 283.886719 221.457031 " clip-rule="nonzero"/></clipPath></defs><path stroke-linecap="butt" transform="matrix(0.75, 0, 0, 0.75, 22.947357, 176.24552)" fill="none" stroke-linejoin="miter" d="M 23.304567 39.000768 L 43.158735 39.000768 C 45.523318 39.000768 47.247277 37.282018 47.247277 34.912226 L 47.247277 19.380975 C 47.247277 19.136183 47.085818 18.979933 46.846235 18.979933 L 43.648318 18.979933 C 43.403527 18.979933 43.247277 19.136183 43.247277 19.380975 L 43.247277 34.188268 C 43.247277 34.641393 42.882693 34.990351 42.445193 34.990351 L 24.028525 34.990351 C 23.580609 34.990351 23.226442 34.641393 23.226442 34.188268 L 23.226442 19.380975 C 23.226442 19.136183 23.059775 18.979933 22.8254 18.979933 L 19.617067 18.979933 C 19.377483 18.979933 19.221233 19.136183 19.221233 19.380975 L 19.221233 34.912226 C 19.221233 37.282018 20.939983 39.000768 23.304567 39.000768 Z M 55.648319 39.000768 L 58.856653 39.000768 C 59.091028 39.000768 59.257694 38.844518 59.257694 38.599726 L 59.257694 30.995559 L 74.387904 30.995559 L 77.195195 39.000768 L 81.591029 39.000768 L 78.788946 30.995559 L 79.189987 30.995559 C 81.554571 30.995559 83.273321 29.271601 83.273321 26.907017 L 83.273321 23.068475 C 83.273321 20.698684 81.554571 18.979933 79.189987 18.979933 L 55.648319 18.979933 C 55.403527 18.979933 55.247277 19.136183 55.247277 19.380975 L 55.247277 38.599726 C 55.247277 38.844518 55.403527 39.000768 55.648319 39.000768 Z M 59.257694 26.985142 L 59.257694 22.99035 L 78.476446 22.99035 C 78.913946 22.99035 79.278529 23.339309 79.278529 23.787225 L 79.278529 26.183059 C 79.278529 26.625767 78.913946 26.985142 78.476446 26.985142 Z M 91.679571 39.000768 L 115.216031 39.000768 C 117.585823 39.000768 119.304573 37.282018 119.304573 34.912226 L 119.304573 31.073684 C 119.304573 30.308059 119.106657 29.584101 118.78374 28.990351 C 119.106657 28.391392 119.304573 27.672642 119.304573 26.907017 L 119.304573 23.068475 C 119.304573 20.698684 117.585823 18.979933 115.216031 18.979933 L 91.679571 18.979933 C 91.43478 18.979933 91.27853 19.136183 91.27853 19.380975 L 91.27853 38.599726 C 91.27853 38.844518 91.43478 39.000768 91.679571 39.000768 Z M 95.283738 34.990351 L 95.283738 30.995559 L 114.50249 30.995559 C 114.945198 30.995559 115.304573 31.354934 115.304573 31.797643 L 115.304573 34.188268 C 115.304573 34.641393 114.945198 34.990351 114.50249 34.990351 Z M 95.283738 26.985142 L 95.283738 22.99035 L 114.50249 22.99035 C 114.945198 22.99035 115.304573 23.339309 115.304573 23.787225 L 115.304573 26.183059 C 115.304573 26.625767 114.945198 26.985142 114.50249 26.985142 Z M 127.710824 39.000768 L 130.913949 39.000768 C 131.148324 39.000768 131.314991 38.844518 131.314991 38.599726 L 131.314991 30.995559 L 151.335825 30.995559 L 151.335825 38.599726 C 151.335825 38.844518 151.492075 39.000768 151.736867 39.000768 L 154.934784 39.000768 C 155.179576 39.000768 155.335826 38.844518 155.335826 38.599726 L 155.335826 23.068475 C 155.335826 20.698684 153.611867 18.979933 151.247284 18.979933 L 131.393116 18.979933 C 129.028532 18.979933 127.309782 20.698684 127.309782 23.068475 L 127.309782 38.599726 C 127.309782 38.844518 127.466032 39.000768 127.710824 39.000768 Z M 131.314991 26.985142 L 131.314991 23.787225 C 131.314991 23.339309 131.669157 22.99035 132.117074 22.99035 L 150.533742 22.99035 C 150.97645 22.99035 151.335825 23.339309 151.335825 23.787225 L 151.335825 26.985142 Z M 190.960828 39.000768 C 191.20562 39.000768 191.36187 38.844518 191.36187 38.599726 L 191.36187 19.380975 C 191.36187 19.136183 191.20562 18.979933 190.960828 18.979933 L 187.768119 18.979933 C 187.523328 18.979933 187.367078 19.136183 187.367078 19.380975 L 187.367078 33.797643 L 167.346243 18.979933 L 163.736868 18.979933 C 163.492076 18.979933 163.335826 19.136183 163.335826 19.380975 L 163.335826 38.599726 C 163.335826 38.844518 163.492076 39.000768 163.736868 39.000768 L 166.945201 39.000768 C 167.179576 39.000768 167.346243 38.844518 167.346243 38.599726 L 167.346243 24.183059 L 187.367078 39.000768 Z M 203.45562 39.000768 L 215.299371 39.000768 C 216.064996 39.000768 216.788955 38.802851 217.382705 38.479935 C 217.99208 38.802851 218.705621 39.000768 219.466038 39.000768 L 231.325414 39.000768 C 233.679581 39.000768 235.398331 37.282018 235.398331 34.912226 L 235.398331 19.380975 C 235.398331 19.136183 235.242081 18.979933 234.997289 18.979933 L 231.804581 18.979933 C 231.559789 18.979933 231.403539 19.136183 231.403539 19.380975 L 231.403539 34.188268 C 231.403539 34.641393 231.038956 34.990351 230.601455 34.990351 L 220.189996 34.990351 C 219.747288 34.990351 219.387913 34.641393 219.387913 34.188268 L 219.387913 19.380975 C 219.387913 19.136183 219.231663 18.979933 218.986871 18.979933 L 215.778538 18.979933 C 215.544163 18.979933 215.377496 19.136183 215.377496 19.380975 L 215.377496 34.188268 C 215.377496 34.641393 215.028538 34.990351 214.575413 34.990351 L 204.17437 34.990351 C 203.726454 34.990351 203.377495 34.641393 203.377495 34.188268 L 203.377495 19.380975 C 203.377495 19.136183 203.210829 18.979933 202.976454 18.979933 L 199.76812 18.979933 C 199.523328 18.979933 199.367078 19.136183 199.367078 19.380975 L 199.367078 34.912226 C 199.367078 37.282018 201.085829 39.000768 203.45562 39.000768 Z M 243.804581 39.000768 L 247.012915 39.000768 C 247.24729 39.000768 247.408748 38.844518 247.408748 38.599726 L 247.408748 30.995559 L 267.429583 30.995559 L 267.429583 38.599726 C 267.429583 38.844518 267.585833 39.000768 267.830625 39.000768 L 271.028541 39.000768 C 271.273333 39.000768 271.429583 38.844518 271.429583 38.599726 L 271.429583 19.380975 C 271.429583 19.136183 271.273333 18.979933 271.028541 18.979933 L 267.830625 18.979933 C 267.585833 18.979933 267.429583 19.136183 267.429583 19.380975 L 267.429583 26.985142 L 247.408748 26.985142 L 247.408748 19.380975 C 247.408748 19.136183 247.24729 18.979933 247.012915 18.979933 L 243.804581 18.979933 C 243.55979 18.979933 243.40354 19.136183 243.40354 19.380975 L 243.40354 38.599726 C 243.40354 38.844518 243.55979 39.000768 243.804581 39.000768 Z M 283.518126 39.000768 L 307.059794 39.000768 C 307.304586 39.000768 307.460836 38.844518 307.460836 38.599726 L 307.460836 35.391393 C 307.460836 35.157018 307.304586 34.990351 307.059794 34.990351 L 284.242084 34.990351 C 283.794167 34.990351 283.440001 34.641393 283.440001 34.188268 L 283.440001 30.995559 L 305.143127 30.995559 C 305.455627 30.995559 305.622294 30.828893 305.622294 30.594518 L 305.622294 27.386184 C 305.622294 27.151809 305.455627 26.985142 305.143127 26.985142 L 283.440001 26.985142 L 283.440001 23.787225 C 283.440001 23.339309 283.794167 22.99035 284.242084 22.99035 L 307.059794 22.99035 C 307.304586 22.99035 307.460836 22.823684 307.460836 22.589309 L 307.460836 19.380975 C 307.460836 19.136183 307.304586 18.979933 307.059794 18.979933 L 283.518126 18.979933 C 281.153542 18.979933 279.434792 20.698684 279.434792 23.068475 L 279.434792 34.912226 C 279.434792 37.282018 281.153542 39.000768 283.518126 39.000768 Z M 319.549378 39.000768 L 343.085838 39.000768 C 343.33063 39.000768 343.48688 38.844518 343.48688 38.599726 L 343.48688 35.391393 C 343.48688 35.157018 343.33063 34.990351 343.085838 34.990351 L 320.273336 34.990351 C 319.820211 34.990351 319.471253 34.641393 319.471253 34.188268 L 319.471253 30.995559 L 341.174379 30.995559 C 341.486879 30.995559 341.653546 30.828893 341.653546 30.594518 L 341.653546 27.386184 C 341.653546 27.151809 341.486879 26.985142 341.174379 26.985142 L 319.471253 26.985142 L 319.471253 23.787225 C 319.471253 23.339309 319.820211 22.99035 320.273336 22.99035 L 343.085838 22.99035 C 343.33063 22.99035 343.48688 22.823684 343.48688 22.589309 L 343.48688 19.380975 C 343.48688 19.136183 343.33063 18.979933 343.085838 18.979933 L 319.549378 18.979933 C 317.184795 18.979933 315.460836 20.698684 315.460836 23.068475 L 315.460836 34.912226 C 315.460836 37.282018 317.184795 39.000768 319.549378 39.000768 Z M 355.58063 39.000768 L 379.11709 39.000768 C 379.361882 39.000768 379.518132 38.844518 379.518132 38.599726 L 379.518132 35.391393 C 379.518132 35.157018 379.361882 34.990351 379.11709 34.990351 L 356.304589 34.990351 C 355.851464 34.990351 355.502505 34.641393 355.502505 34.188268 L 355.502505 19.380975 C 355.502505 19.136183 355.335839 18.979933 355.101464 18.979933 L 351.89313 18.979933 C 351.648338 18.979933 351.492088 19.136183 351.492088 19.380975 L 351.492088 34.912226 C 351.492088 37.282018 353.210839 39.000768 355.58063 39.000768 Z M 387.924382 39.000768 L 411.460842 39.000768 C 413.825426 39.000768 415.549384 37.282018 415.549384 34.912226 L 415.549384 31.073684 C 415.549384 28.709101 413.825426 26.985142 411.460842 26.985142 L 392.330633 26.985142 C 391.882716 26.985142 391.528549 26.625767 391.528549 26.183059 L 391.528549 23.787225 C 391.528549 23.339309 391.882716 22.99035 392.330633 22.99035 L 415.148343 22.99035 C 415.393134 22.99035 415.549384 22.823684 415.549384 22.589309 L 415.549384 19.380975 C 415.549384 19.136183 415.393134 18.979933 415.148343 18.979933 L 391.606674 18.979933 C 389.242091 18.979933 387.523341 20.698684 387.523341 23.068475 L 387.523341 26.907017 C 387.523341 29.271601 389.242091 30.995559 391.606674 30.995559 L 410.747301 30.995559 C 411.190009 30.995559 411.549384 31.354934 411.549384 31.797643 L 411.549384 34.188268 C 411.549384 34.641393 411.190009 34.990351 410.747301 34.990351 L 387.924382 34.990351 C 387.679591 34.990351 387.523341 35.157018 387.523341 35.391393 L 387.523341 38.599726 C 387.523341 38.844518 387.679591 39.000768 387.924382 39.000768 Z M 387.924382 39.000768 " stroke="#a4c639" stroke-width="1.401673" stroke-opacity="1" stroke-miterlimit="4"/><g fill="#4a4a4a" fill-opacity="1"><g transform="translate(37.361419, 205.495518)"><g><path d="M 3.0625 0 L 17.953125 0 C 19.734375 0 21.015625 -1.296875 21.015625 -3.0625 L 21.015625 -14.71875 C 21.015625 -14.890625 20.90625 -15.015625 20.71875 -15.015625 L 18.3125 -15.015625 C 18.140625 -15.015625 18.015625 -14.890625 18.015625 -14.71875 L 18.015625 -3.609375 C 18.015625 -3.265625 17.75 -3 17.421875 -3 L 3.609375 -3 C 3.265625 -3 3 -3.265625 3 -3.609375 L 3 -14.71875 C 3 -14.890625 2.890625 -15.015625 2.703125 -15.015625 L 0.296875 -15.015625 C 0.125 -15.015625 0 -14.890625 0 -14.71875 L 0 -3.0625 C 0 -1.296875 1.296875 0 3.0625 0 Z M 3.0625 0 "/></g></g></g><g fill="#4a4a4a" fill-opacity="1"><g transform="translate(64.383724, 205.495518)"><g><path d="M 0.296875 0 L 2.703125 0 C 2.890625 0 3 -0.125 3 -0.296875 L 3 -6 L 14.359375 -6 L 16.453125 0 L 19.765625 0 L 17.65625 -6 L 17.953125 -6 C 19.734375 -6 21.015625 -7.296875 21.015625 -9.0625 L 21.015625 -11.953125 C 21.015625 -13.71875 19.734375 -15.015625 17.953125 -15.015625 L 0.296875 -15.015625 C 0.125 -15.015625 0 -14.890625 0 -14.71875 L 0 -0.296875 C 0 -0.125 0.125 0 0.296875 0 Z M 3 -9.015625 L 3 -12.015625 L 17.421875 -12.015625 C 17.75 -12.015625 18.015625 -11.75 18.015625 -11.40625 L 18.015625 -9.609375 C 18.015625 -9.28125 17.75 -9.015625 17.421875 -9.015625 Z M 3 -9.015625 "/></g></g></g><g fill="#4a4a4a" fill-opacity="1"><g transform="translate(91.40603, 205.495518)"><g><path d="M 0.296875 0 L 17.953125 0 C 19.734375 0 21.015625 -1.296875 21.015625 -3.0625 L 21.015625 -5.953125 C 21.015625 -6.515625 20.875 -7.0625 20.625 -7.5 C 20.875 -7.953125 21.015625 -8.5 21.015625 -9.0625 L 21.015625 -11.953125 C 21.015625 -13.71875 19.734375 -15.015625 17.953125 -15.015625 L 0.296875 -15.015625 C 0.125 -15.015625 0 -14.890625 0 -14.71875 L 0 -0.296875 C 0 -0.125 0.125 0 0.296875 0 Z M 3 -3 L 3 -6 L 17.421875 -6 C 17.75 -6 18.015625 -5.734375 18.015625 -5.40625 L 18.015625 -3.609375 C 18.015625 -3.265625 17.75 -3 17.421875 -3 Z M 3 -9.015625 L 3 -12.015625 L 17.421875 -12.015625 C 17.75 -12.015625 18.015625 -11.75 18.015625 -11.40625 L 18.015625 -9.609375 C 18.015625 -9.28125 17.75 -9.015625 17.421875 -9.015625 Z M 3 -9.015625 "/></g></g></g><g fill="#4a4a4a" fill-opacity="1"><g transform="translate(118.428338, 205.495518)"><g><path d="M 0.296875 0 L 2.703125 0 C 2.890625 0 3 -0.125 3 -0.296875 L 3 -6 L 18.015625 -6 L 18.015625 -0.296875 C 18.015625 -0.125 18.140625 0 18.3125 0 L 20.71875 0 C 20.90625 0 21.015625 -0.125 21.015625 -0.296875 L 21.015625 -11.953125 C 21.015625 -13.71875 19.734375 -15.015625 17.953125 -15.015625 L 3.0625 -15.015625 C 1.296875 -15.015625 0 -13.71875 0 -11.953125 L 0 -0.296875 C 0 -0.125 0.125 0 0.296875 0 Z M 3 -9.015625 L 3 -11.40625 C 3 -11.75 3.265625 -12.015625 3.609375 -12.015625 L 17.421875 -12.015625 C 17.75 -12.015625 18.015625 -11.75 18.015625 -11.40625 L 18.015625 -9.015625 Z M 3 -9.015625 "/></g></g></g><g fill="#4a4a4a" fill-opacity="1"><g transform="translate(145.450641, 205.495518)"><g><path d="M 20.71875 0 C 20.90625 0 21.015625 -0.125 21.015625 -0.296875 L 21.015625 -14.71875 C 21.015625 -14.890625 20.90625 -15.015625 20.71875 -15.015625 L 18.3125 -15.015625 C 18.140625 -15.015625 18.015625 -14.890625 18.015625 -14.71875 L 18.015625 -3.90625 L 3 -15.015625 L 0.296875 -15.015625 C 0.125 -15.015625 0 -14.890625 0 -14.71875 L 0 -0.296875 C 0 -0.125 0.125 0 0.296875 0 L 2.703125 0 C 2.890625 0 3 -0.125 3 -0.296875 L 3 -11.109375 L 18.015625 0 Z M 20.71875 0 "/></g></g></g><g fill="#4a4a4a" fill-opacity="1"><g transform="translate(172.472943, 205.495518)"><g><path d="M 3.0625 0 L 11.953125 0 C 12.515625 0 13.0625 -0.15625 13.515625 -0.390625 C 13.96875 -0.15625 14.5 0 15.078125 0 L 23.96875 0 C 25.734375 0 27.03125 -1.296875 27.03125 -3.0625 L 27.03125 -14.71875 C 27.03125 -14.890625 26.90625 -15.015625 26.734375 -15.015625 L 24.328125 -15.015625 C 24.140625 -15.015625 24.03125 -14.890625 24.03125 -14.71875 L 24.03125 -3.609375 C 24.03125 -3.265625 23.75 -3 23.421875 -3 L 15.609375 -3 C 15.28125 -3 15.015625 -3.265625 15.015625 -3.609375 L 15.015625 -14.71875 C 15.015625 -14.890625 14.890625 -15.015625 14.71875 -15.015625 L 12.3125 -15.015625 C 12.125 -15.015625 12.015625 -14.890625 12.015625 -14.71875 L 12.015625 -3.609375 C 12.015625 -3.265625 11.75 -3 11.40625 -3 L 3.609375 -3 C 3.265625 -3 3 -3.265625 3 -3.609375 L 3 -14.71875 C 3 -14.890625 2.890625 -15.015625 2.703125 -15.015625 L 0.296875 -15.015625 C 0.125 -15.015625 0 -14.890625 0 -14.71875 L 0 -3.0625 C 0 -1.296875 1.296875 0 3.0625 0 Z M 3.0625 0 "/></g></g></g><g fill="#4a4a4a" fill-opacity="1"><g transform="translate(205.499915, 205.495518)"><g><path d="M 0.296875 0 L 2.703125 0 C 2.890625 0 3 -0.125 3 -0.296875 L 3 -6 L 18.015625 -6 L 18.015625 -0.296875 C 18.015625 -0.125 18.140625 0 18.3125 0 L 20.71875 0 C 20.90625 0 21.015625 -0.125 21.015625 -0.296875 L 21.015625 -14.71875 C 21.015625 -14.890625 20.90625 -15.015625 20.71875 -15.015625 L 18.3125 -15.015625 C 18.140625 -15.015625 18.015625 -14.890625 18.015625 -14.71875 L 18.015625 -9.015625 L 3 -9.015625 L 3 -14.71875 C 3 -14.890625 2.890625 -15.015625 2.703125 -15.015625 L 0.296875 -15.015625 C 0.125 -15.015625 0 -14.890625 0 -14.71875 L 0 -0.296875 C 0 -0.125 0.125 0 0.296875 0 Z M 0.296875 0 "/></g></g></g><g fill="#4a4a4a" fill-opacity="1"><g transform="translate(232.522217, 205.495518)"><g><path d="M 3.0625 0 L 20.71875 0 C 20.90625 0 21.015625 -0.125 21.015625 -0.296875 L 21.015625 -2.703125 C 21.015625 -2.890625 20.90625 -3 20.71875 -3 L 3.609375 -3 C 3.265625 -3 3 -3.265625 3 -3.609375 L 3 -6 L 19.28125 -6 C 19.515625 -6 19.640625 -6.125 19.640625 -6.3125 L 19.640625 -8.703125 C 19.640625 -8.890625 19.515625 -9.015625 19.28125 -9.015625 L 3 -9.015625 L 3 -11.40625 C 3 -11.75 3.265625 -12.015625 3.609375 -12.015625 L 20.71875 -12.015625 C 20.90625 -12.015625 21.015625 -12.125 21.015625 -12.3125 L 21.015625 -14.71875 C 21.015625 -14.890625 20.90625 -15.015625 20.71875 -15.015625 L 3.0625 -15.015625 C 1.296875 -15.015625 0 -13.71875 0 -11.953125 L 0 -3.0625 C 0 -1.296875 1.296875 0 3.0625 0 Z M 3.0625 0 "/></g></g></g><g fill="#4a4a4a" fill-opacity="1"><g transform="translate(259.544532, 205.495518)"><g><path d="M 3.0625 0 L 20.71875 0 C 20.90625 0 21.015625 -0.125 21.015625 -0.296875 L 21.015625 -2.703125 C 21.015625 -2.890625 20.90625 -3 20.71875 -3 L 3.609375 -3 C 3.265625 -3 3 -3.265625 3 -3.609375 L 3 -6 L 19.28125 -6 C 19.515625 -6 19.640625 -6.125 19.640625 -6.3125 L 19.640625 -8.703125 C 19.640625 -8.890625 19.515625 -9.015625 19.28125 -9.015625 L 3 -9.015625 L 3 -11.40625 C 3 -11.75 3.265625 -12.015625 3.609375 -12.015625 L 20.71875 -12.015625 C 20.90625 -12.015625 21.015625 -12.125 21.015625 -12.3125 L 21.015625 -14.71875 C 21.015625 -14.890625 20.90625 -15.015625 20.71875 -15.015625 L 3.0625 -15.015625 C 1.296875 -15.015625 0 -13.71875 0 -11.953125 L 0 -3.0625 C 0 -1.296875 1.296875 0 3.0625 0 Z M 3.0625 0 "/></g></g></g><g fill="#4a4a4a" fill-opacity="1"><g transform="translate(286.566846, 205.495518)"><g><path d="M 3.0625 0 L 20.71875 0 C 20.90625 0 21.015625 -0.125 21.015625 -0.296875 L 21.015625 -2.703125 C 21.015625 -2.890625 20.90625 -3 20.71875 -3 L 3.609375 -3 C 3.265625 -3 3 -3.265625 3 -3.609375 L 3 -14.71875 C 3 -14.890625 2.890625 -15.015625 2.703125 -15.015625 L 0.296875 -15.015625 C 0.125 -15.015625 0 -14.890625 0 -14.71875 L 0 -3.0625 C 0 -1.296875 1.296875 0 3.0625 0 Z M 3.0625 0 "/></g></g></g><g fill="#4a4a4a" fill-opacity="1"><g transform="translate(313.589161, 205.495518)"><g><path d="M 0.296875 0 L 17.953125 0 C 19.734375 0 21.015625 -1.296875 21.015625 -3.0625 L 21.015625 -5.953125 C 21.015625 -7.71875 19.734375 -9.015625 17.953125 -9.015625 L 3.609375 -9.015625 C 3.265625 -9.015625 3 -9.28125 3 -9.609375 L 3 -11.40625 C 3 -11.75 3.265625 -12.015625 3.609375 -12.015625 L 20.71875 -12.015625 C 20.90625 -12.015625 21.015625 -12.125 21.015625 -12.3125 L 21.015625 -14.71875 C 21.015625 -14.890625 20.90625 -15.015625 20.71875 -15.015625 L 3.0625 -15.015625 C 1.296875 -15.015625 0 -13.71875 0 -11.953125 L 0 -9.0625 C 0 -7.296875 1.296875 -6 3.0625 -6 L 17.421875 -6 C 17.75 -6 18.015625 -5.734375 18.015625 -5.40625 L 18.015625 -3.609375 C 18.015625 -3.265625 17.75 -3 17.421875 -3 L 0.296875 -3 C 0.125 -3 0 -2.890625 0 -2.703125 L 0 -0.296875 C 0 -0.125 0.125 0 0.296875 0 Z M 0.296875 0 "/></g></g></g><g fill="#4a4a4a" fill-opacity="1"><g transform="translate(101.360534, 224.97173)"><g><path d="M 1.5625 0 L 10.53125 0 C 10.625 0 10.6875 -0.0625 10.6875 -0.15625 L 10.6875 -1.375 C 10.6875 -1.46875 10.625 -1.53125 10.53125 -1.53125 L 1.828125 -1.53125 C 1.65625 -1.53125 1.53125 -1.65625 1.53125 -1.828125 L 1.53125 -5.796875 C 1.53125 -5.96875 1.65625 -6.109375 1.828125 -6.109375 L 10.53125 -6.109375 C 10.625 -6.109375 10.6875 -6.171875 10.6875 -6.265625 L 10.6875 -7.484375 C 10.6875 -7.578125 10.625 -7.640625 10.53125 -7.640625 L 1.5625 -7.640625 C 0.65625 -7.640625 0 -6.96875 0 -6.078125 L 0 -1.5625 C 0 -0.65625 0.65625 0 1.5625 0 Z M 1.5625 0 "/></g></g></g><g fill="#4a4a4a" fill-opacity="1"><g transform="translate(119.992406, 224.97173)"><g><path d="M 0.15625 0 L 1.375 0 C 1.46875 0 1.53125 -0.0625 1.53125 -0.15625 L 1.53125 -3.046875 L 9.15625 -3.046875 L 9.15625 -0.15625 C 9.15625 -0.0625 9.21875 0 9.3125 0 L 10.53125 0 C 10.625 0 10.6875 -0.0625 10.6875 -0.15625 L 10.6875 -6.078125 C 10.6875 -6.96875 10.03125 -7.640625 9.125 -7.640625 L 1.5625 -7.640625 C 0.65625 -7.640625 0 -6.96875 0 -6.078125 L 0 -0.15625 C 0 -0.0625 0.0625 0 0.15625 0 Z M 1.53125 -4.578125 L 1.53125 -5.796875 C 1.53125 -5.96875 1.65625 -6.109375 1.828125 -6.109375 L 8.859375 -6.109375 C 9.015625 -6.109375 9.15625 -5.96875 9.15625 -5.796875 L 9.15625 -4.578125 Z M 1.53125 -4.578125 "/></g></g></g><g fill="#4a4a4a" fill-opacity="1"><g transform="translate(138.624278, 224.97173)"><g><path d="M 0.15625 0 L 1.375 0 C 1.46875 0 1.53125 -0.0625 1.53125 -0.15625 L 1.53125 -3.046875 L 7.296875 -3.046875 L 8.359375 0 L 10.046875 0 L 8.96875 -3.046875 L 9.125 -3.046875 C 10.03125 -3.046875 10.6875 -3.703125 10.6875 -4.609375 L 10.6875 -6.078125 C 10.6875 -6.96875 10.03125 -7.640625 9.125 -7.640625 L 0.15625 -7.640625 C 0.0625 -7.640625 0 -7.578125 0 -7.484375 L 0 -0.15625 C 0 -0.0625 0.0625 0 0.15625 0 Z M 1.53125 -4.578125 L 1.53125 -6.109375 L 8.859375 -6.109375 C 9.015625 -6.109375 9.15625 -5.96875 9.15625 -5.796875 L 9.15625 -4.890625 C 9.15625 -4.71875 9.015625 -4.578125 8.859375 -4.578125 Z M 1.53125 -4.578125 "/></g></g></g><g fill="#4a4a4a" fill-opacity="1"><g transform="translate(157.25615, 224.97173)"><g/></g></g><g fill="#4a4a4a" fill-opacity="1"><g transform="translate(168.259496, 224.97173)"><g><path d="M 0.15625 0 L 1.375 0 C 1.46875 0 1.53125 -0.0625 1.53125 -0.15625 L 1.53125 -3.046875 L 7.296875 -3.046875 L 8.359375 0 L 10.046875 0 L 8.96875 -3.046875 L 9.125 -3.046875 C 10.03125 -3.046875 10.6875 -3.703125 10.6875 -4.609375 L 10.6875 -6.078125 C 10.6875 -6.96875 10.03125 -7.640625 9.125 -7.640625 L 0.15625 -7.640625 C 0.0625 -7.640625 0 -7.578125 0 -7.484375 L 0 -0.15625 C 0 -0.0625 0.0625 0 0.15625 0 Z M 1.53125 -4.578125 L 1.53125 -6.109375 L 8.859375 -6.109375 C 9.015625 -6.109375 9.15625 -5.96875 9.15625 -5.796875 L 9.15625 -4.890625 C 9.15625 -4.71875 9.015625 -4.578125 8.859375 -4.578125 Z M 1.53125 -4.578125 "/></g></g></g><g fill="#4a4a4a" fill-opacity="1"><g transform="translate(186.891368, 224.97173)"><g><path d="M 1.5625 0 L 10.53125 0 C 10.625 0 10.6875 -0.0625 10.6875 -0.15625 L 10.6875 -1.375 C 10.6875 -1.46875 10.625 -1.53125 10.53125 -1.53125 L 1.828125 -1.53125 C 1.65625 -1.53125 1.53125 -1.65625 1.53125 -1.828125 L 1.53125 -3.046875 L 9.796875 -3.046875 C 9.921875 -3.046875 9.984375 -3.109375 9.984375 -3.203125 L 9.984375 -4.421875 C 9.984375 -4.515625 9.921875 -4.578125 9.796875 -4.578125 L 1.53125 -4.578125 L 1.53125 -5.796875 C 1.53125 -5.96875 1.65625 -6.109375 1.828125 -6.109375 L 10.53125 -6.109375 C 10.625 -6.109375 10.6875 -6.171875 10.6875 -6.265625 L 10.6875 -7.484375 C 10.6875 -7.578125 10.625 -7.640625 10.53125 -7.640625 L 1.5625 -7.640625 C 0.65625 -7.640625 0 -6.96875 0 -6.078125 L 0 -1.5625 C 0 -0.65625 0.65625 0 1.5625 0 Z M 1.5625 0 "/></g></g></g><g fill="#4a4a4a" fill-opacity="1"><g transform="translate(205.52324, 224.97173)"><g><path d="M 10.53125 0 C 10.625 0 10.6875 -0.0625 10.6875 -0.15625 L 10.6875 -7.484375 C 10.6875 -7.578125 10.625 -7.640625 10.53125 -7.640625 L 9.3125 -7.640625 C 9.21875 -7.640625 9.15625 -7.578125 9.15625 -7.484375 L 9.15625 -1.984375 L 1.53125 -7.640625 L 0.15625 -7.640625 C 0.0625 -7.640625 0 -7.578125 0 -7.484375 L 0 -0.15625 C 0 -0.0625 0.0625 0 0.15625 0 L 1.375 0 C 1.46875 0 1.53125 -0.0625 1.53125 -0.15625 L 1.53125 -5.640625 L 9.15625 0 Z M 10.53125 0 "/></g></g></g><g fill="#4a4a4a" fill-opacity="1"><g transform="translate(224.155113, 224.97173)"><g><path d="M 4.734375 0 L 5.953125 0 C 6.046875 0 6.109375 -0.0625 6.109375 -0.15625 L 6.109375 -6.109375 L 10.53125 -6.109375 C 10.625 -6.109375 10.6875 -6.171875 10.6875 -6.265625 L 10.6875 -7.484375 C 10.6875 -7.578125 10.625 -7.640625 10.53125 -7.640625 L 0.15625 -7.640625 C 0.0625 -7.640625 0 -7.578125 0 -7.484375 L 0 -6.265625 C 0 -6.171875 0.0625 -6.109375 0.15625 -6.109375 L 4.578125 -6.109375 L 4.578125 -0.15625 C 4.578125 -0.0625 4.640625 0 4.734375 0 Z M 4.734375 0 "/></g></g></g><g fill="#4a4a4a" fill-opacity="1"><g transform="translate(242.786985, 224.97173)"><g><path d="M 0.15625 0 L 1.375 0 C 1.46875 0 1.53125 -0.0625 1.53125 -0.15625 L 1.53125 -3.046875 L 9.15625 -3.046875 L 9.15625 -0.15625 C 9.15625 -0.0625 9.21875 0 9.3125 0 L 10.53125 0 C 10.625 0 10.6875 -0.0625 10.6875 -0.15625 L 10.6875 -6.078125 C 10.6875 -6.96875 10.03125 -7.640625 9.125 -7.640625 L 1.5625 -7.640625 C 0.65625 -7.640625 0 -6.96875 0 -6.078125 L 0 -0.15625 C 0 -0.0625 0.0625 0 0.15625 0 Z M 1.53125 -4.578125 L 1.53125 -5.796875 C 1.53125 -5.96875 1.65625 -6.109375 1.828125 -6.109375 L 8.859375 -6.109375 C 9.015625 -6.109375 9.15625 -5.96875 9.15625 -5.796875 L 9.15625 -4.578125 Z M 1.53125 -4.578125 "/></g></g></g><g fill="#4a4a4a" fill-opacity="1"><g transform="translate(261.418857, 224.97173)"><g><path d="M 1.5625 0 L 10.53125 0 C 10.625 0 10.6875 -0.0625 10.6875 -0.15625 L 10.6875 -1.375 C 10.6875 -1.46875 10.625 -1.53125 10.53125 -1.53125 L 1.828125 -1.53125 C 1.65625 -1.53125 1.53125 -1.65625 1.53125 -1.828125 L 1.53125 -7.484375 C 1.53125 -7.578125 1.46875 -7.640625 1.375 -7.640625 L 0.15625 -7.640625 C 0.0625 -7.640625 0 -7.578125 0 -7.484375 L 0 -1.5625 C 0 -0.65625 0.65625 0 1.5625 0 Z M 1.5625 0 "/></g></g></g><g clip-path="url(#816b774aee)"><path fill="#ff6600" d="M 89.175781 226.082031 L 89.175781 238.753906 L 92.300781 241.878906 L 92.300781 243.890625 L 52.042969 243.890625 L 52.042969 199.527344 L 92.300781 199.527344 L 92.300781 222.957031 Z M 89.175781 226.082031 " fill-opacity="1" fill-rule="nonzero"/></g><g clip-path="url(#a4c589173d)"><path fill="#ff6600" d="M 320.578125 226.082031 L 320.578125 238.753906 L 323.703125 241.878906 L 323.703125 243.890625 L 283.445312 243.890625 L 283.445312 199.527344 L 323.703125 199.527344 L 323.703125 222.957031 Z M 320.578125 226.082031 " fill-opacity="1" fill-rule="nonzero"/></g><path fill="#002f6c" d="M 170.660156 169.671875 C 170.660156 169.671875 184.859375 164.308594 207.679688 169.671875 C 230.496094 175.035156 238.28125 182.921875 238.28125 182.921875 L 214.023438 182.921875 C 211.804688 179.984375 205.914062 173.539062 196.003906 172.089844 C 196.003906 172.089844 206.570312 175.085938 210.242188 182.921875 L 203.226562 182.921875 C 203.226562 182.921875 191.867188 167.566406 173.78125 179.066406 C 173.78125 179.066406 177.074219 172.933594 183.070312 170.199219 C 183.070312 170.199219 177.601562 168.410156 170.660156 169.671875 " fill-opacity="1" fill-rule="nonzero"/><path fill="#002f6c" d="M 227.34375 159.679688 C 227.34375 159.679688 198.949219 158.527344 167.925781 160.839844 C 167.925781 160.839844 155.203125 151.515625 150.714844 148.148438 C 146.226562 144.785156 189.90625 139.597656 227.34375 159.679688 Z M 65.253906 182.921875 C 79.277344 173.597656 88.671875 182.921875 88.671875 182.921875 C 88.671875 182.921875 87.128906 173.316406 101.007812 175 C 114.890625 176.683594 159.898438 182.921875 159.898438 182.921875 L 94.839844 167.988281 C 139.429688 173.179688 154.851562 166.867188 154.851562 166.867188 C 115.292969 170.492188 98.625 158.597656 98.625 158.597656 C 98.625 158.597656 117.976562 144.996094 133.257812 147.519531 C 148.542969 150.042969 159.410156 166.304688 159.410156 166.304688 C 211.78125 153.265625 255.734375 182.921875 255.734375 182.921875 L 311.894531 182.921875 C 306.566406 177.035156 294.855469 172.6875 294.855469 172.6875 C 300.886719 174.578125 306.285156 176.964844 306.285156 176.964844 C 294.507812 163.503906 273.054688 166.027344 273.054688 166.027344 C 257.628906 161.539062 234.914062 159.789062 234.914062 159.789062 C 202.523438 141.699219 169.996094 141.347656 137.183594 143.453125 C 104.375 145.554688 91.265625 163.046875 82.011719 163.46875 C 72.753906 163.890625 69.109375 168.902344 69.742188 168.691406 C 70.371094 168.480469 72.019531 168.199219 72.019531 168.199219 C 63.082031 173.351562 65.253906 182.921875 65.253906 182.921875 " fill-opacity="1" fill-rule="nonzero"/></svg>